<mxfile host="app.diagrams.net" modified="2023-09-26T07:54:17.643Z" agent="Mozilla/5.0 (Macintosh; Intel Mac OS X 10_15_7) AppleWebKit/537.36 (KHTML, like Gecko) Chrome/117.0.0.0 Safari/537.36 Edg/117.0.2045.40" version="21.8.0" etag="Q3cVcVANQMHNINShupOM" type="github">
  <diagram name="Page-1" id="4F1nNo5wBWLaDQF_T7YV">
    <mxGraphModel>
      <root>
        <mxCell id="0" />
        <mxCell id="1" parent="0" />
      </root>
    </mxGraphModel>
  </diagram>
</mxfile>
